<svg version="1.1" fill="crimson" xmlns="http://www.w3.org/2000/svg" x="0px" y="0px" viewBox="0 0 459 543" xml:space="preserve">
    <path fill="" class="down" opacity="1.000000" stroke="none"
        d="M456.972412,328.208191
        C446.077667,338.543976 435.169098,348.865234 424.291534,359.219116
        C409.897552,372.920166 395.554077,386.674377 381.139374,400.353577
        C369.622711,411.282593 358.025574,422.126740 346.476105,433.021240
        C334.441772,444.373108 322.408112,455.725739 310.399323,467.104584
        C297.061646,479.742706 283.796722,492.457977 270.417816,505.052185
        C257.767151,516.960938 245.009766,528.756348 232.239822,540.657104
        C223.762909,532.534973 215.056000,524.150513 206.302475,515.815063
        C193.237198,503.373840 180.150162,490.955414 167.051620,478.549225
        C155.040909,467.173401 142.999176,455.830383 130.977615,444.466064
        C118.593338,432.758789 106.231834,421.027466 93.832596,409.336121
        C82.886375,399.014801 71.865471,388.772491 60.943409,378.425751
        C46.879417,365.102631 32.898022,351.692322 18.842361,338.360352
        C15.381992,335.078156 11.771758,331.953979 8.129692,327.972931
        C8.014021,282.320190 7.988301,237.451660 8.029233,192.583206
        C8.030658,191.022476 8.696976,189.462387 9.053394,187.901993
        C17.596163,195.659866 26.072773,203.492157 34.696777,211.158661
        C48.578762,223.499374 62.607079,235.675568 76.480400,248.025925
        C87.189850,257.559753 97.683258,267.336426 108.403488,276.857910
        C124.993858,291.593109 141.728378,306.165924 158.335632,320.882202
        C165.863220,327.552643 173.164291,334.478638 180.687881,341.153717
        C194.457550,353.370483 208.325027,365.476959 222.125809,377.658783
        C223.746582,379.089478 225.202332,380.706818 226.738373,382.233856
        C231.308350,386.777008 232.290665,386.791931 237.070786,382.441467
        C248.043289,372.455231 258.962830,362.409912 270.008362,352.505066
        C285.073730,338.995544 300.239532,325.598022 315.356262,312.145691
        C327.524231,301.317505 339.687622,290.484131 351.845245,279.644348
        C367.321625,265.845581 382.782043,252.028824 398.264709,238.237106
        C410.178741,227.624313 422.131348,217.054810 434.038025,206.433792
        C440.792755,200.408478 447.489502,194.318130 454.934326,188.224670
        C456.102325,189.778152 456.935638,191.363495 456.937836,192.949997
        C457.000580,238.035995 456.979706,283.122101 456.972412,328.208191 z"/>
    <path fill="" class="up" opacity="1.000000" stroke="none"
        d="
    M438.183105,169.326141
        C431.205414,175.326508 424.421143,181.013397 417.724945,186.802139
        C407.286407,195.826096 396.947906,204.966660 386.422333,213.887085
        C385.634125,214.555054 383.229462,214.425842 382.350830,213.712753
        C365.338135,199.904953 348.491638,185.892639 331.506073,172.051056
        C314.290161,158.021759 296.920319,144.181458 279.692535,130.166626
        C264.726868,117.992081 249.896835,105.650490 234.885437,93.533142
        C233.912140,92.747475 231.379028,92.563942 230.450821,93.264816
        C223.549332,98.476097 216.837784,103.942032 210.128479,109.404045
        C198.462677,118.901085 186.863617,128.480118 175.194580,137.973145
        C165.442734,145.906464 155.594772,153.721771 145.855621,161.670517
        C136.096497,169.635605 126.445396,177.732925 116.698708,185.713364
        C108.107452,192.747726 99.455757,199.708344 90.818176,206.685989
        C87.279976,209.544250 83.708725,212.361603 79.810791,215.470078
        C61.685822,199.715683 43.751194,184.126755 25.340343,168.123871
        C29.565287,164.644821 33.366467,161.397385 37.289703,158.304810
        C52.669041,146.181717 68.060173,134.073257 83.498146,122.025002
        C98.285019,110.484879 113.203949,99.113174 127.939659,87.508499
        C144.494675,74.471077 160.839218,61.166218 177.405350,48.143101
        C193.429626,35.545952 209.580383,23.108486 225.755920,10.705634
        C231.957748,5.950266 232.152924,5.961973 238.145996,10.635729
        C255.264816,23.985970 272.273438,37.477390 289.376282,50.848263
        C304.153564,62.401054 319.056488,73.793556 333.801025,85.387726
        C348.693207,97.097984 363.408844,109.032722 378.295197,120.750496
        C391.235504,130.936478 404.327148,140.929977 417.310822,151.061172
        C424.265472,156.487869 431.141876,162.015198 438.014557,167.545593
        C438.342072,167.809143 438.290833,168.543350 438.183105,169.326141
    z"/>
    <path fill="" class="middle" opacity="1.000000" stroke="none"
        d="
    M290.012085,270.007996
        C270.700348,286.544403 251.744797,303.032318 232.369751,319.885162
        C202.926453,294.482056 173.361649,268.974121 143.264786,243.007156
        C149.935776,237.500854 156.153534,232.272552 162.475159,227.173050
        C172.127502,219.386765 181.839996,211.674835 191.548279,203.958176
        C202.529785,195.229477 213.523560,186.516129 224.538071,177.829132
        C227.082993,175.821960 229.622482,172.666733 232.371887,172.427963
        C234.498428,172.243286 236.927170,175.815384 239.259048,177.670242
        C248.838745,185.290146 258.450562,192.869736 268.017212,200.505966
        C281.288940,211.099609 294.548737,221.708450 307.775299,232.358398
        C312.236969,235.950912 316.581818,239.688446 320.916504,243.306641
        C310.630341,252.281189 300.499298,261.120361 290.012085,270.007996
    z"/>
</svg>